{
  "source": "C:\\Users\\Peter\\Desktop\\stuff\\MIUN\\quantitative_research\\video_compression\\videos\\BVI-HD\\BVI-HD_CDVL_videos\\ORIG\\ParkPlay_1920x1080_50fps.mp4",
  "output": "C:\\Users\\Peter\\Desktop\\stuff\\MIUN\\quantitative_research\\video_compression\\compressed_videos\\BVI-HD\\av1\\1.5\\ParkPlay_1920x1080_50fps_av1.mkv",
  "codec": "av1",
  "ok": "Input #0, mov,mp4,m4a,3gp,3g2,mj2, from 'C:\\Users\\Peter\\Desktop\\stuff\\MIUN\\quantitative_research\\video_compression\\videos\\BVI-HD\\BVI-HD_CDVL_videos\\ORIG\\ParkPlay_1920x1080_50fps.mp4':\n  Metadata:\n    major_brand     : isom\n    minor_version   : 512\n    compatible_brands: isomiso2avc1mp41\n    encoder         : Lavf54.28.101\n  Duration: 00:00:05.00, start: 0.000000, bitrate: 620563 kb/s\n  Stream #0:0[0x1](und): Video: h264 (High 4:4:4 Predictive) (avc1 / 0x31637661), yuv420p(progressive), 1920x1080, 620558 kb/s, 50 fps, 50 tbr, 50 tbn (default)\n    Metadata:\n      handler_name    : VideoHandler\n      vendor_id       : [0][0][0][0]\n[out#0/matroska @ 000002020e3af0c0] Codec AVOption b:a (set bitrate (in bits/s)) has not been used for any stream. The most likely reason is either wrong type (e.g. a video option with no video streams) or that it is a private option of some decoder which was not actually used for any stream.\nStream mapping:\n  Stream #0:0 -> #0:0 (h264 (native) -> av1 (libsvtav1))\nPress [q] to stop, [?] for help\nSvt[info]: -------------------------------------------\nSvt[info]: SVT [version]:\tSVT-AV1 Encoder Lib v3.1.0-19-g6ecfe8ec\nSvt[info]: SVT [build]  :\tGCC 15.2.0\t 64 bit\nSvt[info]: LIB Build date: Aug 17 2025 11:37:13\nSvt[info]: -------------------------------------------\nSvt[info]: Level of Parallelism: 5\nSvt[info]: Number of PPCS 93\nSvt[info]: [asm level on system : up to avx2]\nSvt[info]: [asm level selected : up to avx2]\nSvt[info]: -------------------------------------------\nSvt[info]: SVT [config]: main profile\ttier (auto)\tlevel (auto)\nSvt[info]: SVT [config]: width / height / fps numerator / fps denominator \t\t: 1920 / 1080 / 50 / 1\nSvt[info]: SVT [config]: bit-depth / color format \t\t\t\t\t: 8 / YUV420\nSvt[info]: SVT [config]: preset / tune / pred struct \t\t\t\t\t: 4 / PSNR / random access\nSvt[info]: SVT [config]: gop size / mini-gop size / key-frame type \t\t\t: 321 / 16 / key frame\nSvt[info]: SVT [config]: BRC mode / target bitrate (kbps)\t\t\t\t: VBR / 1500 \nSvt[info]: SVT [config]: AQ mode / Variance Boost \t\t\t\t\t: 2 / 0\nSvt[info]: SVT [config]: sharpness / luminance-based QP bias \t\t\t\t: 0 / 0\nSvt[info]: SVT [config]: QP scale compress strength \t\t\t\t\t: 0\nSvt[info]: -------------------------------------------\nOutput #0, matroska, to 'C:\\Users\\Peter\\Desktop\\stuff\\MIUN\\quantitative_research\\video_compression\\compressed_videos\\BVI-HD\\av1\\1.5\\ParkPlay_1920x1080_50fps_av1.mkv':\n  Metadata:\n    major_brand     : isom\n    minor_version   : 512\n    compatible_brands: isomiso2avc1mp41\n    encoder         : Lavf62.3.100\n  Stream #0:0(und): Video: av1 (AV01 / 0x31305641), yuv420p(tv, progressive), 1920x1080, q=2-31, 1500 kb/s, 50 fps, 1k tbn (default)\n    Metadata:\n      encoder         : Lavc62.11.100 libsvtav1\n      handler_name    : VideoHandler\n      vendor_id       : [0][0][0][0]\n    Side data:\n      cpb: bitrate max/min/avg: 0/0/1500000 buffer size: 1500000 vbv_delay: N/A\nframe=    0 fps=0.0 q=0.0 size=       0KiB time=N/A bitrate=N/A speed=N/A elapsed=0:00:01.07    \nframe=    0 fps=0.0 q=0.0 size=       0KiB time=N/A bitrate=N/A speed=N/A elapsed=0:00:01.66    \nframe=    0 fps=0.0 q=0.0 size=       0KiB time=N/A bitrate=N/A speed=N/A elapsed=0:00:02.32    \nframe=    0 fps=0.0 q=0.0 size=       0KiB time=N/A bitrate=N/A speed=N/A elapsed=0:00:02.91    \nframe=    0 fps=0.0 q=0.0 size=       0KiB time=N/A bitrate=N/A speed=N/A elapsed=0:00:03.57    \nframe=    0 fps=0.0 q=0.0 size=       0KiB time=N/A bitrate=N/A speed=N/A elapsed=0:00:04.22    \nframe=    0 fps=0.0 q=0.0 size=       0KiB time=N/A bitrate=N/A speed=N/A elapsed=0:00:04.75    \nframe=    0 fps=0.0 q=0.0 size=       0KiB time=N/A bitrate=N/A speed=N/A elapsed=0:00:05.26    \nframe=    0 fps=0.0 q=0.0 size=       0KiB time=N/A bitrate=N/A speed=N/A elapsed=0:00:05.80    \nframe=    0 fps=0.0 q=0.0 size=       0KiB time=N/A bitrate=N/A speed=N/A elapsed=0:00:06.33    \nframe=    1 fps=0.1 q=39.0 size=       1KiB time=00:00:00.00 bitrate=N/A speed=   0x elapsed=0:00:06.86    \nframe=    1 fps=0.1 q=39.0 size=       1KiB time=00:00:00.00 bitrate=N/A speed=   0x elapsed=0:00:07.40    \nframe=    1 fps=0.1 q=39.0 size=       1KiB time=00:00:00.00 bitrate=N/A speed=   0x elapsed=0:00:07.97    \nframe=    3 fps=0.4 q=56.0 size=       1KiB time=00:00:00.02 bitrate= 285.2kbits/s speed=0.00234x elapsed=0:00:08.53    \nframe=    6 fps=0.7 q=56.0 size=       1KiB time=00:00:00.10 bitrate=  57.0kbits/s speed=0.011x elapsed=0:00:09.11    \nframe=    7 fps=0.7 q=56.0 size=       1KiB time=00:00:00.12 bitrate=  47.5kbits/s speed=0.0123x elapsed=0:00:09.73    \nframe=    9 fps=0.9 q=51.0 size=       1KiB time=00:00:00.14 bitrate=  40.7kbits/s speed=0.0136x elapsed=0:00:10.31    \nframe=   12 fps=1.1 q=55.0 size=       1KiB time=00:00:00.22 bitrate=  25.9kbits/s speed=0.02x elapsed=0:00:10.97    \nframe=   14 fps=1.2 q=57.0 size=       1KiB time=00:00:00.24 bitrate=  23.8kbits/s speed=0.0207x elapsed=0:00:11.58    \nframe=   16 fps=1.3 q=57.0 size=       1KiB time=00:00:00.30 bitrate=  19.0kbits/s speed=0.0245x elapsed=0:00:12.24    \nframe=   19 fps=1.5 q=57.0 size=       1KiB time=00:00:00.34 bitrate=  16.8kbits/s speed=0.0266x elapsed=0:00:12.78    \nframe=   20 fps=1.5 q=53.0 size=       1KiB time=00:00:00.38 bitrate=  15.0kbits/s speed=0.0285x elapsed=0:00:13.33    \nframe=   22 fps=1.6 q=57.0 size=       1KiB time=00:00:00.42 bitrate=  13.6kbits/s speed=0.0302x elapsed=0:00:13.89    \nframe=   24 fps=1.7 q=57.0 size=       1KiB time=00:00:00.46 bitrate=  12.4kbits/s speed=0.0318x elapsed=0:00:14.46    \nframe=   27 fps=1.8 q=57.0 size=       1KiB time=00:00:00.52 bitrate=  11.0kbits/s speed=0.0346x elapsed=0:00:15.01    \nframe=   31 fps=2.0 q=56.0 size=       1KiB time=00:00:00.60 bitrate=   9.5kbits/s speed=0.0385x elapsed=0:00:15.58    \nframe=   36 fps=2.2 q=59.0 size=       1KiB time=00:00:00.68 bitrate=   8.4kbits/s speed=0.0421x elapsed=0:00:16.13    \nframe=   38 fps=2.3 q=59.0 size=       1KiB time=00:00:00.74 bitrate=   7.7kbits/s speed=0.0444x elapsed=0:00:16.66    \nframe=   40 fps=2.3 q=50.0 size=       1KiB time=00:00:00.78 bitrate=   7.3kbits/s speed=0.0454x elapsed=0:00:17.19    \nframe=   44 fps=2.5 q=58.0 size=       1KiB time=00:00:00.86 bitrate=   6.6kbits/s speed=0.0484x elapsed=0:00:17.76    \nframe=   47 fps=2.6 q=56.0 size=       1KiB time=00:00:00.92 bitrate=   6.2kbits/s speed=0.0502x elapsed=0:00:18.31    \nframe=   51 fps=2.7 q=58.0 size=       1KiB time=00:00:01.00 bitrate=   5.7kbits/s speed=0.0531x elapsed=0:00:18.84    \nframe=   55 fps=2.8 q=54.0 size=       1KiB time=00:00:01.08 bitrate=   5.3kbits/s speed=0.0558x elapsed=0:00:19.37    \nframe=   57 fps=2.9 q=52.0 size=       1KiB time=00:00:01.12 bitrate=   5.1kbits/s speed=0.0561x elapsed=0:00:19.97    \nframe=   61 fps=3.0 q=53.0 size=       1KiB time=00:00:01.20 bitrate=   4.8kbits/s speed=0.0584x elapsed=0:00:20.53    \nframe=   63 fps=3.0 q=56.0 size=       1KiB time=00:00:01.24 bitrate=   4.6kbits/s speed=0.0586x elapsed=0:00:21.15    \nframe=   66 fps=3.0 q=60.0 size=       1KiB time=00:00:01.30 bitrate=   4.4kbits/s speed=0.0598x elapsed=0:00:21.75    \nframe=   70 fps=3.1 q=60.0 size=       1KiB time=00:00:01.38 bitrate=   4.1kbits/s speed=0.062x elapsed=0:00:22.26    \nframe=   72 fps=3.2 q=60.0 size=       1KiB time=00:00:01.42 bitrate=   4.0kbits/s speed=0.0622x elapsed=0:00:22.81    \nframe=   78 fps=3.3 q=62.0 size=       1KiB time=00:00:01.54 bitrate=   3.7kbits/s speed=0.0659x elapsed=0:00:23.36    \nframe=   82 fps=3.4 q=62.0 size=       1KiB time=00:00:01.60 bitrate=   3.6kbits/s speed=0.0669x elapsed=0:00:23.90    \nframe=   85 fps=3.5 q=57.0 size=       1KiB time=00:00:01.68 bitrate=   3.4kbits/s speed=0.0687x elapsed=0:00:24.46    \nframe=   90 fps=3.6 q=61.0 size=       1KiB time=00:00:01.76 bitrate=   3.2kbits/s speed=0.0704x elapsed=0:00:25.01    \nframe=   95 fps=3.7 q=56.0 size=       1KiB time=00:00:01.88 bitrate=   3.0kbits/s speed=0.0733x elapsed=0:00:25.65    \nframe=   99 fps=3.8 q=60.0 size=       1KiB time=00:00:01.96 bitrate=   2.9kbits/s speed=0.0748x elapsed=0:00:26.21    \nframe=  102 fps=3.8 q=61.0 size=       1KiB time=00:00:02.02 bitrate=   2.8kbits/s speed=0.0755x elapsed=0:00:26.76    \nframe=  108 fps=4.0 q=61.0 size=       1KiB time=00:00:02.12 bitrate=   2.7kbits/s speed=0.0776x elapsed=0:00:27.31    \nframe=  111 fps=4.0 q=60.0 size=       1KiB time=00:00:02.20 bitrate=   2.6kbits/s speed=0.0788x elapsed=0:00:27.92    \nframe=  115 fps=4.0 q=60.0 size=       1KiB time=00:00:02.28 bitrate=   2.5kbits/s speed=0.08x elapsed=0:00:28.51    \nframe=  118 fps=4.1 q=61.0 size=       1KiB time=00:00:02.34 bitrate=   2.4kbits/s speed=0.0806x elapsed=0:00:29.03    \nframe=  122 fps=4.1 q=61.0 size=       1KiB time=00:00:02.40 bitrate=   2.4kbits/s speed=0.081x elapsed=0:00:29.62    \nframe=  125 fps=4.1 q=58.0 size=       1KiB time=00:00:02.48 bitrate=   2.3kbits/s speed=0.0821x elapsed=0:00:30.21    \nframe=  130 fps=4.2 q=61.0 size=       1KiB time=00:00:02.58 bitrate=   2.2kbits/s speed=0.0838x elapsed=0:00:30.77    \nframe=  133 fps=4.2 q=58.0 size=       1KiB time=00:00:02.64 bitrate=   2.2kbits/s speed=0.0843x elapsed=0:00:31.32    \nframe=  136 fps=4.3 q=61.0 size=       1KiB time=00:00:02.70 bitrate=   2.1kbits/s speed=0.0848x elapsed=0:00:31.84    \nframe=  141 fps=4.4 q=58.0 size=       1KiB time=00:00:02.80 bitrate=   2.0kbits/s speed=0.0865x elapsed=0:00:32.37    \nframe=  142 fps=4.3 q=61.0 size=       1KiB time=00:00:02.82 bitrate=   2.0kbits/s speed=0.0857x elapsed=0:00:32.89    \nframe=  149 fps=4.5 q=59.0 size=       1KiB time=00:00:02.90 bitrate=   2.0kbits/s speed=0.0867x elapsed=0:00:33.45    \nframe=  157 fps=4.6 q=59.0 size=       1KiB time=00:00:03.12 bitrate=   1.8kbits/s speed=0.0915x elapsed=0:00:34.08    \nframe=  161 fps=4.6 q=46.0 size=       1KiB time=00:00:03.20 bitrate=   1.8kbits/s speed=0.0924x elapsed=0:00:34.63    \nframe=  161 fps=4.6 q=46.0 size=       1KiB time=00:00:03.20 bitrate=   1.8kbits/s speed=0.091x elapsed=0:00:35.16    \nframe=  165 fps=4.6 q=57.0 size=       1KiB time=00:00:03.28 bitrate=   1.7kbits/s speed=0.0919x elapsed=0:00:35.71    \nframe=  169 fps=4.7 q=54.0 size=       1KiB time=00:00:03.36 bitrate=   1.7kbits/s speed=0.0926x elapsed=0:00:36.29    \nframe=  175 fps=4.8 q=59.0 size=       1KiB time=00:00:03.48 bitrate=   1.6kbits/s speed=0.0945x elapsed=0:00:36.84    \nframe=  177 fps=4.7 q=45.0 size=       1KiB time=00:00:03.52 bitrate=   1.6kbits/s speed=0.0942x elapsed=0:00:37.37    \nframe=  177 fps=4.7 q=45.0 size=       1KiB time=00:00:03.52 bitrate=   1.6kbits/s speed=0.0928x elapsed=0:00:37.91    \nframe=  185 fps=4.8 q=53.0 size=       1KiB time=00:00:03.68 bitrate=   1.6kbits/s speed=0.0957x elapsed=0:00:38.44    \nframe=  189 fps=4.8 q=57.0 size=       1KiB time=00:00:03.76 bitrate=   1.5kbits/s speed=0.0964x elapsed=0:00:38.98    \nframe=  193 fps=4.9 q=45.0 size=       1KiB time=00:00:03.84 bitrate=   1.5kbits/s speed=0.0972x elapsed=0:00:39.52    \nframe=  197 fps=4.9 q=57.0 size=       1KiB time=00:00:03.92 bitrate=   1.5kbits/s speed=0.0978x elapsed=0:00:40.06    \nframe=  201 fps=4.9 q=53.0 size=       1KiB time=00:00:04.00 bitrate=   1.4kbits/s speed=0.0985x elapsed=0:00:40.60    \nframe=  207 fps=5.0 q=59.0 size=       1KiB time=00:00:04.12 bitrate=   1.4kbits/s speed= 0.1x elapsed=0:00:41.14    \nframe=  209 fps=5.0 q=44.0 size=       1KiB time=00:00:04.16 bitrate=   1.4kbits/s speed=0.0998x elapsed=0:00:41.70    \nframe=  217 fps=5.1 q=53.0 size=       1KiB time=00:00:04.28 bitrate=   1.3kbits/s speed=0.101x elapsed=0:00:42.24    \nframe=  219 fps=5.1 q=59.0 size=       1KiB time=00:00:04.32 bitrate=   1.3kbits/s speed=0.101x elapsed=0:00:42.79    \nframe=  223 fps=5.1 q=59.0 size=       1KiB time=00:00:04.44 bitrate=   1.3kbits/s speed=0.102x elapsed=0:00:43.33    \nframe=  225 fps=5.1 q=45.0 size=       1KiB time=00:00:04.48 bitrate=   1.3kbits/s speed=0.102x elapsed=0:00:43.89    \nframe=  229 fps=5.2 q=57.0 size=       1KiB time=00:00:04.56 bitrate=   1.3kbits/s speed=0.103x elapsed=0:00:44.44    \nframe=  233 fps=5.2 q=53.0 size=       1KiB time=00:00:04.64 bitrate=   1.2kbits/s speed=0.103x elapsed=0:00:44.97    \nframe=  245 fps=5.4 q=56.0 size=       1KiB time=00:00:04.88 bitrate=   1.2kbits/s speed=0.107x elapsed=0:00:45.51    \n[out#0/matroska @ 000002020e3af0c0] video:923KiB audio:0KiB subtitle:0KiB other streams:0KiB global headers:0KiB muxing overhead: 0.200937%\nframe=  250 fps=5.5 q=61.0 Lsize=     925KiB time=00:00:04.98 bitrate=1521.2kbits/s speed=0.109x elapsed=0:00:45.65    \n",
  "seconds": 46.38051247596741,
  "probe_out": {}
}